<?xml version="1.0" encoding="iso-8859-1"?>
<!-- Generator: Adobe Illustrator 16.0.0, SVG Export Plug-In . SVG Version: 6.00 Build 0)  -->
<!DOCTYPE svg PUBLIC "-//W3C//DTD SVG 1.1//EN" "http://www.w3.org/Graphics/SVG/1.1/DTD/svg11.dtd">
<svg version="1.1" id="Capa_1" xmlns="http://www.w3.org/2000/svg" xmlns:xlink="http://www.w3.org/1999/xlink" x="0px" y="0px"
	 width="70.099px" height="70.1px" viewBox="0 0 70.099 70.1" style="enable-background:new 0 0 70.099 70.1;" xml:space="preserve"
	>
<g>
	<path d="M70.024,40.166c-0.105-1.558-1.112-2.242-1.848-2.738c-0.65-0.438-1.157-0.773-1.376-1.693
		c-0.575-2.479-3.692-3.431-6.434-4.274c-0.941-0.291-1.827-0.562-2.557-0.87c-1.447-0.605-3.433-1.191-5.53-1.815
		c-2.183-0.642-4.438-1.3-6.04-1.99c-1.427-0.614-1.988-1.627-2.648-2.808c-0.609-1.08-1.294-2.301-2.683-3.203
		c-0.952-0.616-3.368-1.887-6.157-3.364c-4.18-2.208-11.182-5.912-12.037-6.932C21.096,8.509,11.49,6.442,8.571,5.857
		C5.196,4.773,1.076,5.362,0.896,5.386L0,5.513v59.382h70.017l0.014-1.044c0-0.582,0.068-9.664,0.068-16.454
		C70.099,43.831,70.079,40.905,70.024,40.166z M2.109,62.793v-15.27c3.441,4.113,9.454,9.011,9.454,9.011S1.969,45.262,4.705,31.711
		C7.446,18.153,14.91,13.892,14.91,13.892S6.991,26.683,7.292,35.977c0.308,9.292,9.293,18.576,9.293,18.576
		s-6.55-12.946-5.18-20.249c1.371-7.317,9.286-16.603,9.286-16.603s-6.237,11.723-6.237,17.208c0,5.476,2.277,10.66,2.277,10.66
		s-0.753-8.829,0.618-13.861c1.362-5.029,6.093-10.664,6.093-10.664s-7.106,10.895-5.183,22.393
		c1.27,7.583,6.858,12.638,6.858,12.638s-5.635-9.896-4.725-17.364c0.919-7.458,7.156-14.162,7.156-14.162
		s-5.245,9.728-3.518,20.147c1.01,6.075,6.714,11.533,6.714,11.533s-5.025-7.31-4.253-13.706c0.763-6.393,5.631-13.702,5.631-13.702
		s-4.427,10.66-3.508,16.443c0.922,5.783,5.274,10.068,5.274,10.068s-2.957-7.646-2.502-12.361c0.462-4.723,5.631-9.702,5.631-9.702
		s-3.136,8.604-0.946,16.119c1.24,4.264,7.009,8.822,7.009,8.822s-2.81-4.236-3.87-8.351c-1.078-4.113,3.131-12.99,3.131-12.99
		s-1.406,7.823,0.941,13.932c1.516,3.936,5.633,7.357,5.633,7.357s-3.375-6.827-3.293-10.485c0.158-6.728,3.922-9.391,3.922-9.391
		s0.24,10.951,1.917,14.9c1.681,3.967,4.887,5.332,4.887,5.332s-3.662-4.418-3.809-9.281c-0.154-4.88,2.577-9.141,2.734-10.67
		c0.15-1.523-0.609-4.268-0.609-4.268s1.827,1.827,1.522,5.328c-0.301,3.504-2.433,8.073-1.673,11.423
		c0.76,3.357,5.783,7.618,5.783,7.618s-4.117-6.092-3.655-9.746c0.452-3.655,2.279-7.468,2.279-7.468s-0.76,6.55,0.609,10.664
		c1.372,4.113,4.268,6.553,4.268,6.553s-2.896-5.023-2.896-7.922c0-2.896,1.681-6.697,1.681-6.697s-0.309,5.027,0.91,8.531
		c1.222,3.505,3.046,5.182,3.046,5.182s-2.129-5.328-1.979-7.769c0.154-2.437,1.376-5.482,1.376-5.482s0.15,4.568,0.91,8.836
		c0.219,1.164,0.641,2.149,1.123,2.994c-0.008,2.317-0.021,4.569-0.035,6.458H2.109V62.793z"/>
</g>
<g>
</g>
<g>
</g>
<g>
</g>
<g>
</g>
<g>
</g>
<g>
</g>
<g>
</g>
<g>
</g>
<g>
</g>
<g>
</g>
<g>
</g>
<g>
</g>
<g>
</g>
<g>
</g>
<g>
</g>
</svg>
